<?xml version="1.0" encoding="utf-8"?>
<!-- Generator: Adobe Illustrator 27.2.0, SVG Export Plug-In . SVG Version: 6.00 Build 0)  -->
<svg version="1.1" id="Layer_1" xmlns="http://www.w3.org/2000/svg" xmlns:xlink="http://www.w3.org/1999/xlink" x="0px" y="0px"
	 viewBox="0 0 24 24" style="enable-background:new 0 0 24 24;" xml:space="preserve">
<style type="text/css">
	.st0{display:none;}
	.st1{display:inline;}
	.st2{fill:#242424;}
	.st3{display:inline;fill-rule:evenodd;clip-rule:evenodd;}
	.st4{display:inline;fill:#242424;}
	.st5{fill:#FFFFFF;}
</style>
<g class="st0">
	<g class="st1">
		<g>
			<path class="st2" d="M12.62,22.35H2.97c-1.03,0-1.87-0.84-1.87-1.87v-0.69c-0.42-0.39-0.69-0.94-0.69-1.55v-0.2
				c0-1.16,0.95-2.11,2.11-2.11h10.1c1.75,0,3.18,1.43,3.18,3.18v0.06C15.8,20.92,14.37,22.35,12.62,22.35z M1.69,20.17v0.31
				c0,0.71,0.57,1.28,1.28,1.28h9.65c1.43,0,2.59-1.16,2.59-2.59v-0.06c0-1.43-1.16-2.59-2.59-2.59H2.52C1.68,16.52,1,17.2,1,18.04
				v0.2c0,0.84,0.68,1.52,1.52,1.52h10.46c0.38,0,0.69-0.31,0.69-0.69c0-0.38-0.31-0.69-0.69-0.69h-8.5v-0.59h8.5
				c0.7,0,1.27,0.57,1.27,1.27c0,0.7-0.57,1.27-1.27,1.27H2.52C2.23,20.34,1.94,20.28,1.69,20.17z"/>
		</g>
		<g>
			<path class="st2" d="M20.44,15.96h-5.69c1.06,0.65,1.76,1.82,1.76,3.15v0.06c0,1.33-0.71,2.5-1.76,3.15h5.69
				c1.74,0,3.14-1.41,3.14-3.14v-0.07C23.58,17.37,22.18,15.96,20.44,15.96z"/>
		</g>
	</g>
	<g class="st1">
		<g>
			<path class="st2" d="M12.62,15.2H2.97c-1.03,0-1.87-0.84-1.87-1.87v-0.69c-0.42-0.39-0.69-0.94-0.69-1.55v-0.2
				c0-1.16,0.95-2.11,2.11-2.11h10.1c1.75,0,3.18,1.43,3.18,3.18v0.06C15.8,13.77,14.37,15.2,12.62,15.2z M1.69,13.02v0.31
				c0,0.71,0.57,1.28,1.28,1.28h9.65c1.43,0,2.59-1.16,2.59-2.59v-0.06c0-1.43-1.16-2.59-2.59-2.59H2.52C1.68,9.37,1,10.05,1,10.89
				v0.2c0,0.84,0.68,1.52,1.52,1.52h10.46c0.38,0,0.69-0.31,0.69-0.69c0-0.38-0.31-0.69-0.69-0.69h-8.5v-0.59h8.5
				c0.7,0,1.27,0.57,1.27,1.27c0,0.7-0.57,1.27-1.27,1.27H2.52C2.23,13.19,1.94,13.13,1.69,13.02z"/>
		</g>
		<g>
			<path class="st2" d="M20.44,8.81h-5.69c1.06,0.65,1.76,1.82,1.76,3.15v0.06c0,1.33-0.71,2.5-1.76,3.15h5.69
				c1.74,0,3.14-1.41,3.14-3.14v-0.07C23.58,10.22,22.18,8.81,20.44,8.81z"/>
		</g>
	</g>
	<g class="st1">
		<g>
			<path class="st2" d="M12.62,8.07H2.97C1.94,8.07,1.1,7.23,1.1,6.2V5.51C0.68,5.12,0.42,4.57,0.42,3.95v-0.2
				c0-1.16,0.95-2.11,2.11-2.11h10.1c1.75,0,3.18,1.43,3.18,3.18v0.06C15.8,6.64,14.37,8.07,12.62,8.07z M1.69,5.89V6.2
				c0,0.71,0.57,1.28,1.28,1.28h9.65c1.43,0,2.59-1.16,2.59-2.59V4.83c0-1.43-1.16-2.59-2.59-2.59H2.52C1.68,2.24,1,2.92,1,3.76v0.2
				c0,0.84,0.68,1.52,1.52,1.52h10.46c0.38,0,0.69-0.31,0.69-0.69c0-0.38-0.31-0.69-0.69-0.69h-8.5V3.51h8.5
				c0.7,0,1.27,0.57,1.27,1.27c0,0.7-0.57,1.27-1.27,1.27H2.52C2.23,6.06,1.94,6,1.69,5.89z"/>
		</g>
		<g>
			<path class="st2" d="M20.44,1.68h-5.69c1.06,0.65,1.76,1.82,1.76,3.15v0.06c0,1.33-0.71,2.5-1.76,3.15h5.69
				c1.74,0,3.14-1.41,3.14-3.14V4.83C23.58,3.09,22.18,1.68,20.44,1.68z"/>
		</g>
	</g>
</g>
<g class="st0">
	<g class="st1">
		<g>
			<path d="M6.94,16.21V15.4h0.26c0.1,0,0.16,0,0.19,0.01c0.05,0.01,0.09,0.04,0.12,0.08c0.03,0.04,0.05,0.09,0.05,0.16
				c0,0.05-0.01,0.09-0.03,0.13c-0.02,0.03-0.04,0.06-0.07,0.08c-0.03,0.02-0.06,0.03-0.09,0.04c-0.04,0.01-0.09,0.01-0.17,0.01
				H7.11v0.31H6.94z M7.11,15.54v0.23H7.2c0.06,0,0.11-0.01,0.13-0.01c0.02-0.01,0.04-0.02,0.05-0.04c0.01-0.02,0.02-0.04,0.02-0.06
				c0-0.03-0.01-0.05-0.03-0.07c-0.02-0.02-0.04-0.03-0.07-0.04c-0.02,0-0.06-0.01-0.12-0.01H7.11z"/>
			<path d="M7.82,16.21H7.66v-0.59h0.14v0.08c0.02-0.04,0.05-0.06,0.07-0.08c0.02-0.01,0.04-0.02,0.07-0.02
				c0.04,0,0.07,0.01,0.1,0.03l-0.05,0.14c-0.03-0.02-0.05-0.03-0.07-0.03c-0.02,0-0.04,0.01-0.06,0.02
				c-0.01,0.01-0.03,0.03-0.04,0.06c-0.01,0.03-0.01,0.1-0.01,0.2V16.21z"/>
			<path d="M8.04,15.91c0-0.05,0.01-0.1,0.04-0.15c0.03-0.05,0.06-0.08,0.11-0.11c0.05-0.03,0.1-0.04,0.16-0.04
				c0.09,0,0.16,0.03,0.22,0.09c0.06,0.06,0.09,0.13,0.09,0.22c0,0.09-0.03,0.16-0.09,0.22c-0.06,0.06-0.13,0.09-0.22,0.09
				c-0.05,0-0.11-0.01-0.15-0.04c-0.05-0.03-0.09-0.06-0.11-0.11C8.06,16.04,8.04,15.98,8.04,15.91z M8.2,15.92
				c0,0.06,0.01,0.1,0.04,0.13c0.03,0.03,0.06,0.05,0.1,0.05c0.04,0,0.08-0.02,0.1-0.05c0.03-0.03,0.04-0.08,0.04-0.13
				c0-0.06-0.01-0.1-0.04-0.13c-0.03-0.03-0.06-0.05-0.1-0.05c-0.04,0-0.07,0.01-0.1,0.05C8.22,15.82,8.2,15.86,8.2,15.92z"/>
			<path d="M8.67,15.63h0.09v-0.04c0-0.05,0-0.09,0.02-0.11c0.01-0.02,0.03-0.04,0.06-0.06c0.03-0.02,0.06-0.02,0.11-0.02
				c0.04,0,0.09,0.01,0.13,0.02l-0.02,0.11C9.02,15.51,9,15.51,8.98,15.51c-0.02,0-0.04,0.01-0.05,0.02
				c-0.01,0.01-0.02,0.03-0.02,0.06v0.04h0.12v0.12H8.91v0.46H8.76v-0.46H8.67V15.63z"/>
			<path d="M9.43,16.03l0.15,0.03c-0.02,0.06-0.05,0.1-0.09,0.13c-0.04,0.03-0.1,0.04-0.16,0.04c-0.1,0-0.18-0.03-0.23-0.1
				c-0.04-0.05-0.06-0.12-0.06-0.2c0-0.1,0.03-0.17,0.08-0.23c0.05-0.06,0.12-0.08,0.19-0.08c0.09,0,0.16,0.03,0.21,0.09
				c0.05,0.06,0.07,0.15,0.07,0.27H9.2c0,0.05,0.01,0.08,0.04,0.11c0.02,0.03,0.05,0.04,0.09,0.04c0.02,0,0.04-0.01,0.06-0.02
				C9.41,16.08,9.42,16.06,9.43,16.03z M9.44,15.87c0-0.04-0.01-0.08-0.03-0.1c-0.02-0.02-0.05-0.04-0.08-0.04
				c-0.03,0-0.06,0.01-0.08,0.04c-0.02,0.02-0.03,0.06-0.03,0.1H9.44z"/>
			<path d="M9.63,16.05l0.16-0.02c0.01,0.03,0.02,0.05,0.04,0.07c0.02,0.02,0.05,0.02,0.08,0.02c0.04,0,0.07-0.01,0.09-0.02
				c0.01-0.01,0.02-0.02,0.02-0.04c0-0.01,0-0.02-0.01-0.03c-0.01-0.01-0.02-0.01-0.05-0.02c-0.13-0.03-0.2-0.05-0.24-0.08
				c-0.05-0.03-0.07-0.08-0.07-0.13c0-0.05,0.02-0.09,0.06-0.13c0.04-0.03,0.1-0.05,0.19-0.05c0.08,0,0.14,0.01,0.18,0.04
				c0.04,0.03,0.07,0.06,0.08,0.12l-0.15,0.03c-0.01-0.02-0.02-0.04-0.04-0.05c-0.02-0.01-0.04-0.02-0.07-0.02
				c-0.04,0-0.07,0.01-0.09,0.02C9.8,15.75,9.8,15.76,9.8,15.78c0,0.01,0.01,0.02,0.02,0.03c0.01,0.01,0.06,0.03,0.14,0.04
				c0.08,0.02,0.14,0.04,0.17,0.07c0.03,0.03,0.05,0.07,0.05,0.11c0,0.05-0.02,0.1-0.07,0.14c-0.04,0.04-0.11,0.06-0.2,0.06
				c-0.08,0-0.14-0.02-0.19-0.05C9.68,16.15,9.65,16.1,9.63,16.05z"/>
			<path d="M10.23,16.05l0.16-0.02c0.01,0.03,0.02,0.05,0.04,0.07c0.02,0.02,0.05,0.02,0.09,0.02c0.04,0,0.07-0.01,0.09-0.02
				c0.01-0.01,0.02-0.02,0.02-0.04c0-0.01,0-0.02-0.01-0.03c-0.01-0.01-0.02-0.01-0.05-0.02c-0.12-0.03-0.2-0.05-0.24-0.08
				c-0.05-0.03-0.07-0.08-0.07-0.13c0-0.05,0.02-0.09,0.06-0.13c0.04-0.03,0.1-0.05,0.19-0.05c0.08,0,0.14,0.01,0.18,0.04
				c0.04,0.03,0.07,0.06,0.08,0.12l-0.15,0.03c-0.01-0.02-0.02-0.04-0.04-0.05c-0.02-0.01-0.04-0.02-0.07-0.02
				c-0.04,0-0.07,0.01-0.09,0.02c-0.01,0.01-0.02,0.02-0.02,0.03c0,0.01,0,0.02,0.01,0.03c0.01,0.01,0.06,0.03,0.15,0.04
				c0.08,0.02,0.14,0.04,0.17,0.07c0.03,0.03,0.05,0.07,0.05,0.11c0,0.05-0.02,0.1-0.07,0.14c-0.04,0.04-0.11,0.06-0.2,0.06
				c-0.08,0-0.14-0.02-0.19-0.05C10.28,16.15,10.25,16.1,10.23,16.05z"/>
			<path d="M10.89,15.55V15.4h0.16v0.14H10.89z M10.89,16.21v-0.59h0.16v0.59H10.89z"/>
			<path d="M11.14,15.91c0-0.05,0.01-0.1,0.04-0.15c0.03-0.05,0.06-0.08,0.11-0.11c0.05-0.03,0.1-0.04,0.16-0.04
				c0.09,0,0.16,0.03,0.22,0.09c0.06,0.06,0.09,0.13,0.09,0.22c0,0.09-0.03,0.16-0.09,0.22c-0.06,0.06-0.13,0.09-0.22,0.09
				c-0.05,0-0.11-0.01-0.15-0.04c-0.05-0.03-0.09-0.06-0.11-0.11C11.15,16.04,11.14,15.98,11.14,15.91z M11.3,15.92
				c0,0.06,0.01,0.1,0.04,0.13c0.03,0.03,0.06,0.05,0.1,0.05c0.04,0,0.07-0.02,0.1-0.05c0.03-0.03,0.04-0.08,0.04-0.13
				c0-0.06-0.01-0.1-0.04-0.13c-0.03-0.03-0.06-0.05-0.1-0.05c-0.04,0-0.07,0.01-0.1,0.05C11.31,15.82,11.3,15.86,11.3,15.92z"/>
			<path d="M12.37,16.21h-0.16v-0.3c0-0.06,0-0.11-0.01-0.12c-0.01-0.02-0.02-0.03-0.03-0.04c-0.02-0.01-0.03-0.02-0.05-0.02
				c-0.03,0-0.05,0.01-0.07,0.02c-0.02,0.02-0.04,0.03-0.04,0.06c-0.01,0.02-0.01,0.07-0.01,0.13v0.27h-0.16v-0.59h0.14v0.09
				c0.05-0.07,0.12-0.1,0.19-0.1c0.03,0,0.06,0.01,0.09,0.02c0.03,0.01,0.05,0.03,0.06,0.05c0.01,0.02,0.03,0.04,0.03,0.07
				c0.01,0.02,0.01,0.06,0.01,0.1V16.21z"/>
			<path d="M12.61,15.81l-0.14-0.03c0.02-0.06,0.04-0.1,0.08-0.13c0.04-0.03,0.1-0.04,0.17-0.04c0.07,0,0.12,0.01,0.15,0.02
				c0.03,0.02,0.06,0.04,0.07,0.06c0.01,0.03,0.02,0.07,0.02,0.14l0,0.18c0,0.05,0,0.09,0.01,0.11c0,0.02,0.01,0.05,0.03,0.08h-0.15
				c0-0.01-0.01-0.03-0.02-0.05c0-0.01,0-0.02-0.01-0.02c-0.03,0.03-0.05,0.05-0.09,0.06c-0.03,0.01-0.06,0.02-0.1,0.02
				c-0.06,0-0.11-0.02-0.14-0.05c-0.03-0.03-0.05-0.07-0.05-0.12c0-0.03,0.01-0.06,0.02-0.09c0.02-0.03,0.04-0.05,0.07-0.06
				c0.03-0.01,0.07-0.03,0.12-0.04c0.07-0.01,0.12-0.03,0.15-0.04v-0.01c0-0.03-0.01-0.05-0.02-0.06c-0.02-0.01-0.04-0.02-0.08-0.02
				c-0.03,0-0.05,0.01-0.06,0.02C12.63,15.76,12.62,15.78,12.61,15.81z M12.82,15.93c-0.02,0.01-0.05,0.01-0.09,0.02
				c-0.04,0.01-0.07,0.02-0.08,0.03c-0.02,0.02-0.03,0.03-0.03,0.06c0,0.02,0.01,0.04,0.02,0.06c0.02,0.02,0.04,0.02,0.06,0.02
				c0.03,0,0.05-0.01,0.08-0.03c0.02-0.01,0.03-0.03,0.04-0.05c0-0.01,0.01-0.04,0.01-0.08V15.93z"/>
			<path d="M13.09,16.21V15.4h0.16v0.81H13.09z"/>
			<path d="M13.67,16.21V15.4h0.6v0.14h-0.44v0.18h0.41v0.14h-0.41v0.22h0.45v0.14H13.67z"/>
			<path d="M14.77,16.44v-0.29c-0.02,0.03-0.05,0.05-0.08,0.06c-0.03,0.02-0.06,0.02-0.1,0.02c-0.07,0-0.12-0.02-0.16-0.07
				c-0.05-0.06-0.08-0.14-0.08-0.24c0-0.09,0.02-0.17,0.07-0.22c0.05-0.05,0.11-0.08,0.18-0.08c0.04,0,0.07,0.01,0.1,0.02
				c0.03,0.02,0.05,0.04,0.08,0.08v-0.09h0.14v0.81H14.77z M14.78,15.91c0-0.06-0.01-0.1-0.04-0.13c-0.02-0.03-0.06-0.04-0.09-0.04
				c-0.04,0-0.07,0.02-0.09,0.05c-0.03,0.03-0.04,0.08-0.04,0.14c0,0.06,0.01,0.11,0.04,0.14c0.02,0.03,0.05,0.04,0.09,0.04
				c0.04,0,0.07-0.02,0.09-0.05C14.76,16.02,14.78,15.98,14.78,15.91z"/>
			<path d="M15.44,16.21v-0.09c-0.02,0.03-0.05,0.06-0.08,0.07c-0.03,0.02-0.07,0.03-0.11,0.03c-0.04,0-0.08-0.01-0.11-0.03
				c-0.03-0.02-0.05-0.04-0.07-0.07c-0.01-0.03-0.02-0.07-0.02-0.13v-0.37h0.16v0.27c0,0.08,0,0.13,0.01,0.15
				c0.01,0.02,0.02,0.03,0.03,0.04c0.01,0.01,0.03,0.02,0.06,0.02c0.03,0,0.05-0.01,0.07-0.02c0.02-0.01,0.04-0.03,0.04-0.05
				c0.01-0.02,0.01-0.07,0.01-0.16v-0.25h0.16v0.59H15.44z"/>
			<path d="M15.71,15.55V15.4h0.15v0.14H15.71z M15.71,16.21v-0.59h0.15v0.59H15.71z"/>
			<path d="M15.99,15.63h0.14v0.09c0.02-0.03,0.04-0.05,0.08-0.07c0.03-0.02,0.07-0.03,0.11-0.03c0.07,0,0.13,0.03,0.17,0.08
				c0.05,0.05,0.07,0.13,0.07,0.22c0,0.1-0.02,0.17-0.07,0.23c-0.05,0.05-0.11,0.08-0.17,0.08c-0.03,0-0.06-0.01-0.09-0.02
				c-0.03-0.01-0.05-0.03-0.08-0.07v0.3h-0.16V15.63z M16.15,15.91c0,0.07,0.01,0.11,0.04,0.15c0.03,0.03,0.06,0.05,0.1,0.05
				c0.04,0,0.07-0.01,0.09-0.04c0.02-0.03,0.04-0.08,0.04-0.14c0-0.06-0.01-0.11-0.04-0.14c-0.02-0.03-0.06-0.05-0.09-0.05
				c-0.04,0-0.07,0.01-0.09,0.04C16.16,15.81,16.15,15.85,16.15,15.91z"/>
			<path d="M16.6,16.05l0.16-0.02c0.01,0.03,0.02,0.05,0.04,0.07c0.02,0.02,0.05,0.02,0.09,0.02c0.04,0,0.07-0.01,0.09-0.02
				c0.01-0.01,0.02-0.02,0.02-0.04c0-0.01,0-0.02-0.01-0.03c-0.01-0.01-0.03-0.01-0.05-0.02c-0.13-0.03-0.2-0.05-0.24-0.08
				c-0.05-0.03-0.07-0.08-0.07-0.13c0-0.05,0.02-0.09,0.06-0.13c0.04-0.03,0.1-0.05,0.19-0.05c0.08,0,0.14,0.01,0.18,0.04
				c0.04,0.03,0.07,0.06,0.08,0.12l-0.15,0.03c-0.01-0.02-0.02-0.04-0.04-0.05c-0.02-0.01-0.04-0.02-0.07-0.02
				c-0.04,0-0.07,0.01-0.09,0.02c-0.01,0.01-0.02,0.02-0.02,0.03c0,0.01,0,0.02,0.02,0.03c0.01,0.01,0.06,0.03,0.14,0.04
				c0.08,0.02,0.14,0.04,0.17,0.07c0.03,0.03,0.05,0.07,0.05,0.11c0,0.05-0.02,0.1-0.07,0.14c-0.04,0.04-0.11,0.06-0.2,0.06
				c-0.08,0-0.14-0.02-0.19-0.05C16.65,16.15,16.62,16.1,16.6,16.05z"/>
			<path d="M18.26,16.12l-0.09,0.12c-0.05-0.02-0.09-0.05-0.13-0.09c-0.03,0.03-0.07,0.05-0.1,0.06c-0.04,0.01-0.08,0.02-0.13,0.02
				c-0.1,0-0.18-0.03-0.23-0.08c-0.04-0.04-0.06-0.09-0.06-0.15c0-0.05,0.01-0.1,0.05-0.14c0.03-0.04,0.08-0.08,0.14-0.11
				c-0.03-0.03-0.05-0.06-0.06-0.09c-0.01-0.03-0.02-0.06-0.02-0.08c0-0.05,0.02-0.09,0.06-0.12c0.04-0.03,0.1-0.05,0.17-0.05
				c0.07,0,0.13,0.02,0.16,0.05c0.04,0.04,0.06,0.08,0.06,0.13c0,0.03-0.01,0.06-0.03,0.09c-0.02,0.03-0.06,0.06-0.12,0.1l0.11,0.15
				c0.01-0.02,0.02-0.05,0.03-0.09l0.14,0.03c-0.01,0.05-0.03,0.09-0.04,0.11c-0.01,0.02-0.02,0.04-0.03,0.06
				c0.02,0.02,0.04,0.03,0.07,0.05C18.23,16.1,18.25,16.11,18.26,16.12z M17.78,15.84c-0.04,0.02-0.06,0.04-0.08,0.07
				c-0.02,0.03-0.03,0.05-0.03,0.08c0,0.03,0.01,0.06,0.03,0.08c0.02,0.02,0.05,0.03,0.09,0.03c0.03,0,0.05-0.01,0.07-0.01
				c0.02-0.01,0.05-0.03,0.07-0.05L17.78,15.84z M17.84,15.68l0.04-0.03c0.03-0.02,0.05-0.05,0.05-0.07c0-0.02-0.01-0.04-0.02-0.05
				c-0.02-0.01-0.04-0.02-0.06-0.02c-0.02,0-0.04,0.01-0.06,0.02c-0.01,0.01-0.02,0.03-0.02,0.04c0,0.02,0.01,0.04,0.04,0.07
				L17.84,15.68z"/>
			<path d="M19.13,15.92l0.16,0.05c-0.02,0.09-0.06,0.15-0.12,0.2c-0.06,0.04-0.13,0.06-0.22,0.06c-0.11,0-0.2-0.04-0.26-0.11
				c-0.07-0.07-0.1-0.17-0.1-0.3c0-0.13,0.03-0.24,0.1-0.31c0.07-0.07,0.16-0.11,0.28-0.11c0.1,0,0.18,0.03,0.24,0.09
				c0.04,0.03,0.06,0.08,0.08,0.15l-0.16,0.04c-0.01-0.04-0.03-0.08-0.06-0.1c-0.03-0.02-0.07-0.04-0.11-0.04
				c-0.06,0-0.11,0.02-0.15,0.06c-0.04,0.04-0.06,0.11-0.06,0.21c0,0.1,0.02,0.18,0.06,0.22c0.04,0.04,0.08,0.07,0.14,0.07
				c0.04,0,0.08-0.01,0.11-0.04C19.1,16.02,19.12,15.98,19.13,15.92z"/>
			<path d="M19.4,16.21V15.4h0.15v0.81H19.4z"/>
			<path d="M20.03,16.03l0.15,0.03c-0.02,0.06-0.05,0.1-0.09,0.13c-0.04,0.03-0.1,0.04-0.16,0.04c-0.1,0-0.18-0.03-0.23-0.1
				c-0.04-0.05-0.06-0.12-0.06-0.2c0-0.1,0.02-0.17,0.08-0.23c0.05-0.06,0.12-0.08,0.19-0.08c0.09,0,0.16,0.03,0.21,0.09
				c0.05,0.06,0.07,0.15,0.07,0.27H19.8c0,0.05,0.01,0.08,0.04,0.11c0.02,0.03,0.05,0.04,0.09,0.04c0.02,0,0.04-0.01,0.06-0.02
				C20.01,16.08,20.02,16.06,20.03,16.03z M20.04,15.87c0-0.04-0.01-0.08-0.03-0.1c-0.02-0.02-0.05-0.04-0.08-0.04
				c-0.03,0-0.06,0.01-0.08,0.04c-0.02,0.02-0.03,0.06-0.03,0.1H20.04z"/>
			<path d="M20.4,15.81l-0.14-0.03c0.02-0.06,0.04-0.1,0.08-0.13c0.04-0.03,0.1-0.04,0.17-0.04c0.07,0,0.12,0.01,0.16,0.02
				c0.03,0.02,0.06,0.04,0.07,0.06c0.01,0.03,0.02,0.07,0.02,0.14l0,0.18c0,0.05,0,0.09,0.01,0.11c0,0.02,0.01,0.05,0.03,0.08h-0.15
				c0-0.01-0.01-0.03-0.02-0.05c0-0.01,0-0.02,0-0.02c-0.03,0.03-0.06,0.05-0.09,0.06c-0.03,0.01-0.06,0.02-0.1,0.02
				c-0.06,0-0.11-0.02-0.14-0.05c-0.04-0.03-0.05-0.07-0.05-0.12c0-0.03,0.01-0.06,0.02-0.09c0.02-0.03,0.04-0.05,0.07-0.06
				c0.03-0.01,0.07-0.03,0.12-0.04c0.07-0.01,0.12-0.03,0.15-0.04v-0.01c0-0.03-0.01-0.05-0.02-0.06c-0.01-0.01-0.04-0.02-0.08-0.02
				c-0.03,0-0.05,0.01-0.06,0.02C20.43,15.76,20.41,15.78,20.4,15.81z M20.61,15.93c-0.02,0.01-0.05,0.01-0.09,0.02
				c-0.04,0.01-0.07,0.02-0.08,0.03c-0.02,0.02-0.03,0.03-0.03,0.06c0,0.02,0.01,0.04,0.02,0.06c0.02,0.02,0.04,0.02,0.06,0.02
				c0.03,0,0.05-0.01,0.08-0.03c0.02-0.01,0.03-0.03,0.04-0.05c0-0.01,0.01-0.04,0.01-0.08V15.93z"/>
			<path d="M21.42,16.21h-0.15v-0.3c0-0.06,0-0.11-0.01-0.12c-0.01-0.02-0.02-0.03-0.03-0.04c-0.01-0.01-0.03-0.02-0.05-0.02
				c-0.03,0-0.05,0.01-0.07,0.02c-0.02,0.02-0.04,0.03-0.04,0.06c-0.01,0.02-0.01,0.07-0.01,0.13v0.27h-0.16v-0.59h0.14v0.09
				c0.05-0.07,0.12-0.1,0.19-0.1c0.03,0,0.07,0.01,0.09,0.02c0.03,0.01,0.05,0.03,0.06,0.05c0.01,0.02,0.02,0.04,0.03,0.07
				c0.01,0.02,0.01,0.06,0.01,0.1V16.21z"/>
			<path d="M21.55,15.55V15.4h0.16v0.14H21.55z M21.55,16.21v-0.59h0.16v0.59H21.55z"/>
			<path d="M22.37,16.21h-0.16v-0.3c0-0.06,0-0.11-0.01-0.12c-0.01-0.02-0.02-0.03-0.03-0.04c-0.02-0.01-0.03-0.02-0.05-0.02
				c-0.03,0-0.05,0.01-0.07,0.02c-0.02,0.02-0.04,0.03-0.04,0.06c-0.01,0.02-0.01,0.07-0.01,0.13v0.27h-0.15v-0.59h0.14v0.09
				c0.05-0.07,0.12-0.1,0.19-0.1c0.03,0,0.07,0.01,0.09,0.02c0.03,0.01,0.05,0.03,0.06,0.05c0.01,0.02,0.02,0.04,0.03,0.07
				c0.01,0.02,0.01,0.06,0.01,0.1V16.21z"/>
			<path d="M22.48,16.25l0.18,0.02c0,0.02,0.01,0.04,0.02,0.04c0.01,0.01,0.04,0.02,0.07,0.02c0.04,0,0.07-0.01,0.09-0.02
				c0.01-0.01,0.02-0.02,0.03-0.04c0.01-0.01,0.01-0.04,0.01-0.07v-0.09c-0.05,0.06-0.11,0.09-0.18,0.09c-0.08,0-0.14-0.03-0.19-0.1
				c-0.04-0.05-0.05-0.12-0.05-0.2c0-0.1,0.02-0.17,0.07-0.23c0.05-0.05,0.11-0.08,0.18-0.08c0.07,0,0.13,0.03,0.18,0.1v-0.08h0.14
				v0.53c0,0.07-0.01,0.12-0.02,0.16c-0.01,0.03-0.03,0.06-0.05,0.08c-0.02,0.02-0.05,0.03-0.08,0.05
				c-0.03,0.01-0.08,0.02-0.13,0.02c-0.1,0-0.17-0.02-0.21-0.05c-0.04-0.03-0.06-0.08-0.06-0.13
				C22.48,16.27,22.48,16.26,22.48,16.25z M22.62,15.91c0,0.06,0.01,0.11,0.04,0.14c0.02,0.03,0.05,0.04,0.09,0.04
				c0.04,0,0.07-0.01,0.1-0.04c0.03-0.03,0.04-0.07,0.04-0.13c0-0.06-0.01-0.11-0.04-0.14c-0.02-0.03-0.06-0.04-0.09-0.04
				c-0.04,0-0.07,0.01-0.09,0.04C22.63,15.81,22.62,15.85,22.62,15.91z"/>
		</g>
		<g>
			<g>
				<path d="M9.35,11.3L8.88,11.4c0.02-0.12,0.03-0.21,0.03-0.29c0-0.5-0.25-0.76-0.74-0.76c-0.39,0-0.58,0.17-0.58,0.52
					c0,0.26,0.22,0.48,0.65,0.67c0.84,0.36,1.25,0.89,1.25,1.59c0,0.41-0.12,0.74-0.35,0.99C8.91,14.38,8.6,14.5,8.21,14.5
					c-0.86,0-1.29-0.42-1.29-1.25c0-0.07,0-0.15,0.01-0.25l0.49-0.13c-0.04,0.18-0.06,0.34-0.06,0.48c0,0.54,0.25,0.81,0.74,0.81
					c0.4,0,0.59-0.19,0.59-0.58c0-0.29-0.24-0.54-0.71-0.76C7.3,12.5,6.95,12,6.95,11.31c0-0.39,0.11-0.7,0.34-0.94
					c0.23-0.24,0.53-0.36,0.9-0.36C8.96,10.01,9.35,10.44,9.35,11.3z"/>
				<path d="M12.46,14.31c-0.23,0.11-0.45,0.17-0.66,0.17c-0.32,0-0.51-0.12-0.58-0.37c-0.15,0.26-0.37,0.39-0.66,0.39
					c-0.54,0-0.81-0.31-0.81-0.94c0-0.48,0.25-0.81,0.74-1c0.45-0.18,0.68-0.39,0.68-0.64c0-0.33-0.13-0.49-0.39-0.49
					c-0.3,0-0.45,0.16-0.45,0.48c0,0.1,0.02,0.23,0.07,0.39l-0.46-0.11c-0.01-0.1-0.02-0.19-0.02-0.28c0-0.51,0.37-0.76,1.11-0.76
					c0.7,0,1.05,0.24,1.05,0.71v1.95c0,0.2,0.05,0.3,0.15,0.3c0.03,0,0.08-0.02,0.14-0.07L12.46,14.31z M11.16,12.49
					c-0.06,0.08-0.12,0.15-0.2,0.21c-0.19,0.14-0.29,0.38-0.29,0.71c0,0.42,0.07,0.64,0.2,0.64c0.19,0,0.29-0.21,0.29-0.63V12.49z"
					/>
				<path d="M13.76,11.13c0.84,0,1.26,0.56,1.26,1.68c0,1.12-0.42,1.68-1.26,1.68c-0.84,0-1.27-0.56-1.27-1.68
					C12.49,11.69,12.92,11.13,13.76,11.13z M13.76,11.42c-0.2,0-0.3,0.46-0.3,1.4c0,0.93,0.1,1.4,0.3,1.4c0.21,0,0.31-0.47,0.31-1.4
					C14.07,11.88,13.96,11.42,13.76,11.42z"/>
				<path d="M17.44,11.22l-0.85,3.2h-0.64l-0.88-3.2h0.98l0.54,2.15l0.55-2.15H17.44z"/>
				<path d="M17.66,14.42v-3.2c0.28,0,0.58-0.03,0.9-0.09v3.28H17.66z"/>
				<path d="M20.19,11.13c0.34,0,0.62,0.17,0.84,0.5c0.22,0.33,0.33,0.75,0.33,1.27v0.03h-1.4c0,0.84,0.16,1.26,0.49,1.26
					c0.31,0,0.46-0.24,0.46-0.71c0-0.04,0-0.11,0-0.22l0.36,0.14c-0.04,0.74-0.38,1.11-1.01,1.11c-0.83,0-1.24-0.53-1.24-1.6
					c0-0.51,0.11-0.94,0.33-1.27C19.57,11.29,19.85,11.13,20.19,11.13z M20.49,12.56c0-0.75-0.09-1.12-0.26-1.12
					c-0.17,0-0.26,0.37-0.26,1.12H20.49z"/>
				<path d="M23.03,11.23v0.36h-0.4v2.27c0,0.14,0.04,0.21,0.11,0.21c0.05,0,0.08-0.05,0.09-0.14l0.26,0.03
					c-0.07,0.33-0.3,0.5-0.68,0.5c-0.46,0-0.69-0.25-0.69-0.74v-2.13h-0.31v-0.36h0.31v-0.57c0.31-0.11,0.62-0.27,0.91-0.48v1.04
					H23.03z"/>
			</g>
			<path d="M13.76,11.14c0.84,0,1.26,0.56,1.26,1.67c0,1.11-0.42,1.67-1.26,1.67c-0.84,0-1.27-0.56-1.27-1.67
				C12.49,11.7,12.92,11.14,13.76,11.14z M13.76,11.42c-0.2,0-0.3,0.46-0.3,1.39c0,0.93,0.1,1.39,0.3,1.39
				c0.21,0,0.31-0.46,0.31-1.39C14.07,11.88,13.96,11.42,13.76,11.42z"/>
			<path d="M17.44,11.22l-0.85,3.19h-0.64l-0.88-3.19h0.98l0.54,2.14l0.55-2.14H17.44z"/>
			<path d="M17.66,14.41v-3.19c0.28,0,0.58-0.03,0.9-0.09v3.27H17.66z"/>
			<path d="M20.19,11.13c0.34,0,0.62,0.17,0.84,0.49c0.22,0.33,0.33,0.75,0.33,1.27v0.03h-1.4c0,0.84,0.16,1.25,0.49,1.25
				c0.31,0,0.46-0.23,0.46-0.71c0-0.04,0-0.11,0-0.22l0.36,0.14c-0.04,0.73-0.38,1.1-1.01,1.1c-0.83,0-1.24-0.53-1.24-1.59
				c0-0.51,0.11-0.93,0.33-1.27C19.57,11.3,19.85,11.13,20.19,11.13z M20.49,12.56c0-0.74-0.09-1.11-0.26-1.11
				c-0.17,0-0.26,0.37-0.26,1.11H20.49z"/>
			<path d="M23.03,11.23v0.36h-0.4v2.26c0,0.14,0.04,0.21,0.11,0.21c0.05,0,0.08-0.05,0.09-0.14l0.26,0.03
				c-0.07,0.33-0.3,0.5-0.68,0.5c-0.46,0-0.69-0.25-0.69-0.74v-2.12h-0.31v-0.36h0.31v-0.56c0.31-0.11,0.62-0.27,0.91-0.47v1.04
				H23.03z"/>
		</g>
	</g>
	<path class="st3" d="M4.65,10.97c-0.14-0.11-0.29-0.21-0.45-0.29c0.41,0.33,0.68,0.83,0.68,1.4v0.12c0,0.74-0.46,1.38-1.12,1.65
		c-0.53,0.21-2.16,0.11-2.84,0.11v0.76v0.54v0.97h2.45c0.28,0,0.42-0.02,0.71-0.09c1.15-0.31,2-1.37,2-2.61v-0.18
		C6.07,12.32,5.49,11.43,4.65,10.97z M5.87,13.52c0,1.13-0.76,2.12-1.85,2.42c-0.28,0.07-0.4,0.09-0.65,0.09H1.12v-0.78H3.2
		c0.24,0,0.36-0.01,0.61-0.08c0.99-0.27,1.72-1.17,1.72-2.24v-0.16c0-0.04-0.01-0.07-0.01-0.1c0,0,0-0.01,0-0.01v-0.14
		c0-0.2-0.03-0.39-0.07-0.58c0.27,0.41,0.43,0.89,0.43,1.4V13.52z"/>
	<path class="st3" d="M3.62,7.55c-0.28,0-0.42,0.02-0.71,0.09c-1.15,0.31-2,1.37-2,2.61v0.18c0,1.02,0.58,1.91,1.42,2.37
		c0.14,0.11,0.29,0.21,0.45,0.29c-0.41-0.32-0.68-0.83-0.68-1.39v-0.12c0-0.74,0.46-1.38,1.12-1.65c0.53-0.21,2.16-0.11,2.84-0.11
		V9.07V8.52V7.55H3.62z M3.79,8.52c-0.24,0-0.36,0.01-0.61,0.08C2.2,8.87,1.46,9.78,1.46,10.85V11c0,0.03,0.01,0.07,0.01,0.1
		c0,0,0,0.01,0,0.01v0.14c0,0.2,0.03,0.39,0.07,0.58c-0.27-0.41-0.43-0.89-0.43-1.4v-0.18c0-1.13,0.76-2.12,1.85-2.42
		c0.28-0.08,0.4-0.09,0.65-0.09h2.25v0.78H3.79z"/>
</g>
<g class="st0">
	<path class="st4" d="M21.91,10.08c-0.49,0.41-1.4,1.01-1.9,1.21c-0.31,0.12-0.38-0.16-0.23-0.32c0.76-0.85,2.25-2.58,3.08-3.82
		c0.16-0.24,0.13-0.55-0.06-0.76l-0.06-0.06C22.5,6.16,22.18,6.21,22,6.43c-0.56,0.67-1.74,2.09-2.72,3.13
		c-0.1,0.11-0.27-0.02-0.19-0.15c0.74-1.22,2.05-3.42,2.61-4.66c0.11-0.24,0.01-0.53-0.22-0.66l0,0c-0.23-0.13-0.52-0.05-0.66,0.17
		l-2.94,4.47c-0.09,0.13-0.29,0.03-0.23-0.12c0.64-1.62,0.99-2.59,1.56-3.91c0.1-0.24-0.03-0.52-0.28-0.6l-0.01,0
		c-0.2-0.06-0.42,0.02-0.53,0.2l-2.94,4.7c-0.02,0.04-0.05,0.07-0.08,0.11L15,9.47c-0.23,0.25-0.65,0.15-0.74-0.19l-0.02-0.1
		c-0.09-0.37-0.1-0.76-0.02-1.14l0.24-1.13c0.07-0.33-0.11-0.66-0.43-0.78L13.9,6.1c-0.34-0.12-0.71,0.04-0.86,0.37v0
		c-0.63,1.46-0.86,3.06-0.67,4.64c0.02,0.17,0.04,0.34,0.06,0.49c0.04,0.31,0,0.63-0.11,0.92c0.02,0.04,0.05,0.07,0.07,0.11
		l0.01,0.01c0.14,0.19,0.31,0.35,0.51,0.48l2.45,1.57c0.29,0.18,0.46,0.49,0.46,0.83c0,0.34-0.17,0.65-0.45,0.83l-2.82,1.81
		l2.71,1.74c0.27,0.17,0.62,0.02,0.68-0.29l0.59-2.96c0.04-0.22,0.15-0.42,0.3-0.59l0.53-0.59l2.76-2.52c0,0,2.1-1.47,2.66-2.18
		C23.34,10.06,22.67,9.44,21.91,10.08z"/>
	<path class="st4" d="M11.95,13.01l-0.01-0.01c-0.3-0.4-0.43-0.9-0.37-1.39c0.02-0.15,0.04-0.32,0.06-0.49
		c0.19-1.58-0.04-3.18-0.67-4.64l0,0c-0.14-0.33-0.52-0.49-0.86-0.37L9.97,6.15C9.66,6.27,9.48,6.6,9.55,6.93l0.24,1.13
		C9.86,8.44,9.85,8.83,9.76,9.2L9.73,9.3C9.65,9.63,9.23,9.73,9,9.48L8.65,9.1C8.62,9.06,8.59,9.03,8.56,8.99l-2.94-4.7
		C5.51,4.11,5.3,4.03,5.1,4.09l-0.01,0C4.83,4.18,4.7,4.46,4.8,4.7c0.57,1.32,0.92,2.29,1.56,3.91c0.06,0.15-0.14,0.25-0.23,0.12
		L3.19,4.26C3.05,4.04,2.76,3.97,2.53,4.09l0,0C2.29,4.22,2.2,4.51,2.31,4.76C2.87,6,4.17,8.2,4.92,9.42
		c0.08,0.13-0.09,0.25-0.19,0.15C3.74,8.53,2.56,7.11,2,6.44C1.82,6.22,1.5,6.17,1.26,6.33L1.2,6.39C1.01,6.61,0.99,6.92,1.15,7.16
		c0.83,1.24,2.32,2.96,3.08,3.82C4.37,11.14,4.31,11.42,4,11.3c-0.51-0.2-1.42-0.8-1.9-1.21c-0.76-0.64-1.44-0.02-0.87,0.69
		c0.56,0.71,2.66,2.18,2.66,2.18l2.76,2.52l0.53,0.59c0.15,0.17,0.25,0.37,0.3,0.59l0.59,2.96c0.06,0.31,0.42,0.46,0.68,0.29
		l6.33-4.07c0.23-0.15,0.23-0.49,0-0.64c-0.67-0.43-1.84-1.18-2.45-1.57C12.36,13.46,12.14,13.25,11.95,13.01z"/>
</g>
<g class="st0">
	<path class="st4" d="M12.83,12.93l-1.38-0.32l2.42-10.78c0.09-0.38,0.47-0.62,0.85-0.54l0,0c0.38,0.09,0.62,0.47,0.53,0.85
		L12.83,12.93z"/>
	<ellipse class="st4" cx="18.95" cy="21.97" rx="1.68" ry="0.75"/>
	<ellipse class="st4" cx="16.21" cy="16.73" rx="1.19" ry="0.53"/>
	<path class="st4" d="M17.27,17.95c-0.45,0-0.89,0.03-1.29,0.09c-0.49,0.07-0.99,0.04-1.48-0.09c-0.35-0.1-0.73-0.16-1.15-0.2
		c-0.22,0.61-0.61,1.21-1.27,1.68c-0.88,0.63-1.95,0.94-3.26,0.94c0,0,0,0,0,0c-0.67,0-1.32-0.08-1.89-0.14
		c-0.43-0.05-0.84-0.1-1.18-0.11c-0.03,0-0.05,0-0.08,0c-0.55,0-1.5,0.3-2.18,0.55c0.55,0.52,2.19,0.89,4.14,0.89
		c0.07,0,0.15,0,0.22,0c0.39-0.01,0.77,0.05,1.14,0.18c0.84,0.28,2.1,0.46,3.5,0.46c2.54,0,4.6-0.59,4.6-1.31
		c0-0.03,0-0.05-0.01-0.08c0.06,0,0.12,0,0.19,0c2.05,0,3.71-0.64,3.71-1.43C20.98,18.59,19.32,17.95,17.27,17.95z"/>
	<path class="st4" d="M12.9,14.74l-2.57-0.61c-0.85,0.89-2.41,0.3-4.87,1.89c-1.53,1-2.18,2.49-2.45,3.47
		c0.41-0.72,1.11-1.7,2.03-2.13c0.61-0.28,1.3-0.41,1.9-0.53c0.83-0.16,1.55-0.3,1.88-0.75c0.09-0.12,0.25-0.14,0.37-0.06
		c0.12,0.09,0.14,0.25,0.06,0.37c-0.45,0.61-1.3,0.78-2.2,0.95c-0.6,0.12-1.23,0.24-1.78,0.49c-0.53,0.24-0.98,0.72-1.33,1.2
		c0.55-0.39,1.24-0.73,1.99-0.74c0.17,0,0.33,0,0.5-0.01c1.44-0.01,2.93-0.03,3.56-0.99c0.08-0.12,0.24-0.16,0.37-0.08
		c0.12,0.08,0.16,0.24,0.08,0.37c-0.78,1.2-2.42,1.22-4,1.23c-0.17,0-0.33,0-0.49,0.01c-0.99,0.02-1.91,0.76-2.43,1.27
		c0.54-0.25,1.36-0.54,2.27-0.52c1.6,0.04,4.05,0.82,6.02-0.59S12.9,14.74,12.9,14.74z"/>
</g>
<g class="st0">
	<g class="st1">
		<g>
			<path class="st2" d="M6.32,17.13l0.78,0.78l-5.03,5.03c-0.21,0.21-0.56,0.21-0.78,0l0,0c-0.21-0.21-0.21-0.56,0-0.78L6.32,17.13z
				"/>
			<path class="st2" d="M5.35,11.86l7.16,7.16l0,0c-0.35,0.35-0.91,0.35-1.26,0l-5.89-5.89C5,12.77,5,12.2,5.35,11.86L5.35,11.86z"
				/>
		</g>
		<g>
			<g>
				<path class="st2" d="M6.68,6.44c-0.07,0-0.14-0.03-0.19-0.08L5.34,5.21c-0.1-0.1-0.1-0.27,0-0.38c0.1-0.1,0.27-0.1,0.38,0
					l1.15,1.15c0.1,0.1,0.1,0.27,0,0.38C6.82,6.42,6.75,6.44,6.68,6.44z"/>
			</g>
			<g>
				<path class="st2" d="M9.66,6.11c-0.07,0-0.14-0.03-0.19-0.08L8.65,5.21c-0.1-0.1-0.1-0.27,0-0.38c0.1-0.1,0.27-0.1,0.38,0
					l0.82,0.82c0.1,0.1,0.1,0.27,0,0.38C9.79,6.09,9.73,6.11,9.66,6.11z"/>
			</g>
			<g>
				<path class="st2" d="M15.18,19.33c-0.07,0-0.14-0.03-0.19-0.08l-0.67-0.67c-0.1-0.1-0.1-0.27,0-0.38c0.1-0.1,0.27-0.1,0.38,0
					l0.67,0.67c0.1,0.1,0.1,0.27,0,0.38C15.32,19.31,15.25,19.33,15.18,19.33z"/>
			</g>
			<g>
				<path class="st2" d="M19.75,18.7c-0.07,0-0.14-0.03-0.19-0.08l-2.5-2.5c-0.1-0.1-0.1-0.27,0-0.38c0.1-0.1,0.27-0.1,0.38,0
					l2.5,2.5c0.1,0.1,0.1,0.27,0,0.38C19.88,18.67,19.81,18.7,19.75,18.7z"/>
			</g>
			<g>
				<path class="st2" d="M19.99,15.4c-0.07,0-0.14-0.03-0.19-0.08l-0.93-0.93c-0.1-0.1-0.1-0.27,0-0.38c0.1-0.1,0.27-0.1,0.38,0
					l0.93,0.93c0.1,0.1,0.1,0.27,0,0.38C20.13,15.38,20.06,15.4,19.99,15.4z"/>
			</g>
			<g>
				<path class="st2" d="M6.2,9.58c-0.07,0-0.14-0.03-0.19-0.08L5.28,8.77c-0.1-0.1-0.1-0.27,0-0.38c0.1-0.1,0.27-0.1,0.38,0
					l0.73,0.73c0.1,0.1,0.1,0.27,0,0.38C6.34,9.56,6.27,9.58,6.2,9.58z"/>
			</g>
		</g>
	</g>
	<path class="st4" d="M12.82,4.02l-7.24,7.3l0.68,0.69l6.72,6.72l7.22-7.27V4.02H12.82z M13.73,13.25
		c-0.74,0.15-1.33,0.71-1.52,1.44l-0.1,0.41l-0.1-0.48c-0.14-0.7-0.67-1.26-1.37-1.44l-0.47-0.12l0.49-0.1
		c0.69-0.14,1.25-0.67,1.42-1.35l0.12-0.48l0.11,0.55c0.13,0.66,0.63,1.18,1.28,1.35l0.54,0.14L13.73,13.25z M15.36,8.03
		c-0.5,0.1-0.89,0.48-1.02,0.97l-0.07,0.27L14.2,8.95c-0.09-0.47-0.45-0.84-0.92-0.96L12.97,7.9l0.33-0.07
		c0.47-0.09,0.84-0.45,0.95-0.91l0.08-0.32l0.07,0.37c0.09,0.44,0.42,0.79,0.86,0.9l0.36,0.09L15.36,8.03z"/>
	<polygon class="st4" points="6.27,14.81 6.32,17.13 7.1,17.91 9.43,17.97 	"/>
	<polygon class="st4" points="2.22,1.47 2.22,20.44 4.24,18.43 4.24,3.49 20.74,3.49 20.74,20.09 5.66,20.09 3.64,22.12 4.33,22.12 
		22.87,22.12 22.87,1.47 	"/>
</g>
<g>
	<path class="st2" d="M13.38,11.37c-0.92-0.08-1.71,0.65-1.71,1.58v5.12c0.29-0.11,0.6-0.17,0.93-0.17c1.48,0,2.68,1.2,2.68,2.68
		c0,0.85-0.4,1.61-1.02,2.1h1.91c1.77,0,3.2-1.43,3.2-3.2v-3.61C19.36,12.4,15.64,11.56,13.38,11.37z"/>
	<circle class="st2" cx="12.59" cy="20.58" r="2.22"/>
	<g>
		<path class="st5" d="M12.59,21.86c-0.71,0-1.28-0.57-1.28-1.28c0-0.71,0.57-1.28,1.28-1.28s1.28,0.57,1.28,1.28
			C13.87,21.28,13.3,21.86,12.59,21.86z M12.59,19.77c-0.45,0-0.81,0.36-0.81,0.81c0,0.45,0.36,0.81,0.81,0.81s0.81-0.36,0.81-0.81
			C13.4,20.13,13.04,19.77,12.59,19.77z"/>
	</g>
	<g>
		<g>
			<path class="st5" d="M19.08,19.28L19.08,19.28c-1.19,0-2.16-0.97-2.16-2.16v-1.16c0-1.19,0.97-2.16,2.16-2.16
				c1.19,0,2.16,0.97,2.16,2.16v1.16C21.24,18.31,20.27,19.28,19.08,19.28z M19.08,14.27c-0.93,0-1.69,0.76-1.69,1.69v1.16
				c0,0.93,0.76,1.69,1.69,1.69c0.93,0,1.69-0.76,1.69-1.69v-1.16C20.77,15.03,20.01,14.27,19.08,14.27z"/>
		</g>
	</g>
	<g>
		<rect x="6.42" y="5.79" class="st2" width="1.65" height="1.05"/>
		<rect x="6.8" y="7.28" class="st2" width="0.89" height="14.5"/>
		<polygon class="st2" points="9.97,22.9 4.51,22.9 4.99,21.62 9.49,21.62 		"/>
	</g>
	<path class="st2" d="M13.64,9.35H15c-0.01-0.45-0.03-1.4-0.03-2.76c-0.01-1-0.83-1.82-1.83-1.82h-0.04c-1.01,0-1.83,0.82-1.83,1.83
		v1.23c0,0.26-0.21,0.48-0.48,0.48c-0.26,0-0.48-0.21-0.48-0.48V2.49c0-1.01-0.82-1.83-1.83-1.83H8.4c-1.01,0-1.83,0.82-1.83,1.83
		v2.85h1.35V2.49c0-0.26,0.21-0.48,0.48-0.48h0.09c0.26,0,0.48,0.21,0.48,0.48v5.34c0,1.01,0.82,1.83,1.83,1.83
		c1.01,0,1.83-0.82,1.83-1.83V6.6c0-0.26,0.21-0.48,0.48-0.48h0.04c0.26,0,0.47,0.21,0.48,0.47C13.62,7.94,13.63,8.89,13.64,9.35z"
		/>
	<path class="st2" d="M13.41,10.96c0.55,0.05,1.21,0.13,1.9,0.29v-1.07c0-0.2-0.2-0.37-0.44-0.37h-1.13c-0.24,0-0.44,0.16-0.44,0.37
		v0.77C13.33,10.95,13.37,10.96,13.41,10.96z"/>
</g>
</svg>
