<svg id="Layer_1" data-name="Layer 1" xmlns="http://www.w3.org/2000/svg" viewBox="0 0 70.5 70.5"><defs><style>.cls-1{fill:#ffd200;}</style></defs><title>icon</title><path d="M19.61,62.3H50.9c3.51,0,5.92-2.2,6.19-6l2.2-30.62a2.3,2.3,0,0,0-2.36-2.35H46a23.68,23.68,0,0,0-2.85-9.6c-2-3.39-4.75-5.5-7.9-5.5s-5.95,2.1-7.91,5.5a23.62,23.62,0,0,0-2.84,9.6h-11a2.32,2.32,0,0,0-2.35,2.37l2.21,30.6C13.65,59.58,15.72,62.3,19.61,62.3Zm10.1-47.22c1.48-2.56,3.44-4.15,5.55-4.15s4.07,1.59,5.52,4.13a20.77,20.77,0,0,1,2.47,8.24h-16A20.62,20.62,0,0,1,29.71,15.08ZM27,50a1.1,1.1,0,0,1,1.54-.29c.32.22.65.43,1,.65a13.7,13.7,0,0,0,6.87,2.33,4.71,4.71,0,0,0,4.12-2c.06-.1.12-.16.14-.21a5.52,5.52,0,0,0,.58-1.3,4,4,0,0,0-.15-2.68,5.64,5.64,0,0,0-2.32-2.45,11.36,11.36,0,0,0-2.94-1.22c-3-.85-5.2-2-6.39-3.64s-1.41-3.87,0-6.45a6.28,6.28,0,0,1,5.25-3,13.73,13.73,0,0,1,7.12,1.63,1.11,1.11,0,0,1-1,2A11.37,11.37,0,0,0,34.88,32a4.08,4.08,0,0,0-3.44,1.79c-.93,1.7-.92,3-.16,4.05.87,1.18,2.68,2.09,5.21,2.81A14.31,14.31,0,0,1,40,42.11a7.78,7.78,0,0,1,3.21,3.48,6.17,6.17,0,0,1,.26,4.17,7.09,7.09,0,0,1-.83,1.86l-.19.3a6.86,6.86,0,0,1-6,3,15.92,15.92,0,0,1-8-2.64c-.36-.2-.74-.44-1.13-.71A1.1,1.1,0,0,1,27,50Z"/><path class="cls-1" d="M57.91,0H12.59A12.59,12.59,0,0,0,0,12.59V57.91A12.59,12.59,0,0,0,12.59,70.5H57.91A12.59,12.59,0,0,0,70.5,57.91V12.59A12.59,12.59,0,0,0,57.91,0Zm-.82,56.27c-.27,3.83-2.68,6-6.19,6H19.61c-3.89,0-6-2.72-6.19-6l-2.21-30.6a2.32,2.32,0,0,1,2.35-2.37h11a23.62,23.62,0,0,1,2.84-9.6c2-3.4,4.75-5.5,7.91-5.5s5.92,2.11,7.9,5.5A23.68,23.68,0,0,1,46,23.3H56.93a2.3,2.3,0,0,1,2.36,2.35Z"/><path class="cls-1" d="M40.78,15.06c-1.45-2.54-3.43-4.13-5.52-4.13s-4.07,1.59-5.55,4.15a20.62,20.62,0,0,0-2.47,8.22h16A20.77,20.77,0,0,0,40.78,15.06Z"/><path class="cls-1" d="M40,42.11a14.31,14.31,0,0,0-3.49-1.46C34,39.93,32.15,39,31.28,37.84c-.76-1-.77-2.35.16-4.05A4.08,4.08,0,0,1,34.88,32a11.37,11.37,0,0,1,5.94,1.4,1.11,1.11,0,0,0,1-2,13.73,13.73,0,0,0-7.12-1.63,6.28,6.28,0,0,0-5.25,3c-1.39,2.58-1.29,4.7,0,6.45s3.4,2.79,6.39,3.64a11.36,11.36,0,0,1,2.94,1.22,5.64,5.64,0,0,1,2.32,2.45,4,4,0,0,1,.15,2.68,5.52,5.52,0,0,1-.58,1.3c0,.05-.08.11-.14.21a4.71,4.71,0,0,1-4.12,2,13.7,13.7,0,0,1-6.87-2.33c-.37-.22-.7-.43-1-.65a1.11,1.11,0,0,0-1.25,1.83c.39.27.77.51,1.13.71a15.92,15.92,0,0,0,8,2.64,6.86,6.86,0,0,0,6-3l.19-.3a7.09,7.09,0,0,0,.83-1.86,6.17,6.17,0,0,0-.26-4.17A7.78,7.78,0,0,0,40,42.11Z"/></svg>