<svg id="Layer_1" data-name="Layer 1" xmlns="http://www.w3.org/2000/svg" viewBox="0 0 70.5 70.5"><defs><style>.cls-1{fill:#ffd200;}</style></defs><title>icon</title><path d="M29.88,56.56h8.58V35.07h6l.64-7.2H38.46V23.78c0-1.7.34-2.37,2-2.37h4.65V13.94h-6c-6.38,0-9.26,2.82-9.26,8.2v5.73H25.42v7.29h4.46Z"/><path class="cls-1" d="M57.91,0H12.59A12.59,12.59,0,0,0,0,12.59V57.91A12.59,12.59,0,0,0,12.59,70.5H57.91A12.59,12.59,0,0,0,70.5,57.91V12.59A12.59,12.59,0,0,0,57.91,0ZM45.09,21.41H40.44c-1.64,0-2,.67-2,2.37v4.09h6.63l-.64,7.2h-6V56.56H29.88V35.16H25.42V27.87h4.46V22.14c0-5.38,2.88-8.2,9.26-8.2h6Z"/></svg>