<svg id="Layer_1" data-name="Layer 1" xmlns="http://www.w3.org/2000/svg" viewBox="0 0 70.5 70.5"><defs><style>.cls-1{fill:#ffd200;}</style></defs><title>icon</title><path d="M13.21,53.94c4.4,1.19,22,1.19,22,1.19s17.64,0,22-1.19a7.09,7.09,0,0,0,5-5c1.18-4.43,1.18-13.67,1.18-13.67s0-9.24-1.18-13.67a7.09,7.09,0,0,0-5-5c-4.4-1.19-22-1.19-22-1.19s-17.64,0-22,1.19a7.09,7.09,0,0,0-5,5C7,26,7,35.25,7,35.25s0,9.24,1.18,13.67A7.09,7.09,0,0,0,13.21,53.94ZM29.48,26.86l14.75,8.39L29.48,43.64Z"/><path class="cls-1" d="M57.91,0H12.59A12.59,12.59,0,0,0,0,12.59V57.91A12.59,12.59,0,0,0,12.59,70.5H57.91A12.59,12.59,0,0,0,70.5,57.91V12.59A12.59,12.59,0,0,0,57.91,0Zm4.37,48.92a7.09,7.09,0,0,1-5,5c-4.4,1.19-22,1.19-22,1.19s-17.64,0-22-1.19a7.09,7.09,0,0,1-5-5C7,44.49,7,35.25,7,35.25S7,26,8.22,21.58a7.09,7.09,0,0,1,5-5c4.4-1.19,22-1.19,22-1.19s17.64,0,22,1.19a7.09,7.09,0,0,1,5,5c1.18,4.43,1.18,13.67,1.18,13.67S63.46,44.49,62.28,48.92Z"/><polygon class="cls-1" points="29.48 43.64 44.23 35.25 29.48 26.86 29.48 43.64"/></svg>