<svg id="Layer_1" data-name="Layer 1" xmlns="http://www.w3.org/2000/svg" viewBox="0 0 70.5 70.5"><defs><style>.cls-1{fill:#ffd200;}</style></defs><title>icon</title><path d="M33.69,40.52a3.54,3.54,0,0,0,3.5-3.79,3.51,3.51,0,1,0-7,0A3.54,3.54,0,0,0,33.69,40.52Z"/><path d="M8.61,43v0l0,.13a1.88,1.88,0,0,0,1,1.35c.79.4,21.67,13.5,24.49,15.13a2.21,2.21,0,0,0,1,.27h.11a2.26,2.26,0,0,0,1.08-.28l2.09-1.26c4.44-2.7,13.9-8.62,19-11.8,1.91-1.18,3.21-2,3.39-2.07A1.87,1.87,0,0,0,61.91,43V24.58s0-.1,0-.16a.13.13,0,0,0,0-.06A2,2,0,0,0,61,22.89c-.36-.22-8.75-5.36-10-6a1.61,1.61,0,0,0-.81-.22,1.32,1.32,0,0,0-.75.2c-.1,0-9.14,5.74-10.56,6.48a7.18,7.18,0,0,1-3.63.89A7.4,7.4,0,0,1,32,23.52C30.55,23,21.09,16.8,21.09,16.8a1.63,1.63,0,0,0-1.58,0c-1.07.6-7.83,4.72-9.85,6l-.16.08a2,2,0,0,0-.89,1.55,1.29,1.29,0,0,0,0,.28V42.89a.22.22,0,0,0,0,.08Zm33-2.38,6.19-7.4h-6.1V30.83h9.46v2.08L45,40.28h6.31v2.36H41.63Zm-8.41-10A4.68,4.68,0,0,1,37,32.41V30.83h2.6V42.64H37V41.06a4.68,4.68,0,0,1-3.78,1.82,5.89,5.89,0,0,1-5.7-6.15A5.88,5.88,0,0,1,33.22,30.59ZM22,26.57V40h4.8v2.65H19.19v-16Z"/><path class="cls-1" d="M57.91,0H12.59A12.59,12.59,0,0,0,0,12.59V57.91A12.59,12.59,0,0,0,12.59,70.5H57.91A12.59,12.59,0,0,0,70.5,57.91V12.59A12.59,12.59,0,0,0,57.91,0Zm4,24.6V43a1.87,1.87,0,0,1-1.09,1.51c-.18.09-1.48.89-3.39,2.07-5.1,3.18-14.56,9.1-19,11.8l-2.09,1.26a2.26,2.26,0,0,1-1.08.28h-.11a2.21,2.21,0,0,1-1-.27C31.36,58,10.48,44.88,9.69,44.48a1.88,1.88,0,0,1-1-1.35l0-.13v0h0a.22.22,0,0,1,0-.08V24.72a1.29,1.29,0,0,1,0-.28,2,2,0,0,1,.89-1.55l.16-.08c2-1.26,8.78-5.38,9.85-6a1.63,1.63,0,0,1,1.58,0S30.55,23,32,23.52a7.4,7.4,0,0,0,3.24.68,7.18,7.18,0,0,0,3.63-.89c1.42-.74,10.46-6.48,10.56-6.48a1.32,1.32,0,0,1,.75-.2,1.61,1.61,0,0,1,.81.22c1.23.68,9.62,5.82,10,6a2,2,0,0,1,.92,1.47.13.13,0,0,1,0,.06c0,.06,0,.11,0,.16Z"/><polygon class="cls-1" points="21.96 26.57 19.18 26.57 19.19 42.62 26.77 42.62 26.77 39.97 21.96 39.97 21.96 26.57"/><path class="cls-1" d="M37,32.41a4.68,4.68,0,0,0-3.78-1.82,5.88,5.88,0,0,0-5.7,6.14,5.89,5.89,0,0,0,5.7,6.15A4.68,4.68,0,0,0,37,41.06v1.58h2.6V30.83H37Zm-3.31,8.11a3.54,3.54,0,0,1-3.49-3.79,3.51,3.51,0,1,1,7,0A3.54,3.54,0,0,1,33.69,40.52Z"/><polygon class="cls-1" points="51.18 32.91 51.18 30.83 41.72 30.83 41.72 33.19 47.83 33.19 41.63 40.59 41.63 42.64 51.32 42.64 51.32 40.28 45.01 40.28 51.18 32.91"/></svg>