<svg id="Layer_1" data-name="Layer 1" xmlns="http://www.w3.org/2000/svg" viewBox="0 0 70.5 70.5"><defs><style>.cls-1{fill:#ffd200;}</style></defs><title>icon</title><path d="M38.22,38.59c0-3.31,1.53-5.29,4.45-5.29,2.68,0,4,1.9,4,5.29V51H53.9V36c0-6.32-3.58-9.37-8.57-9.37a8.23,8.23,0,0,0-7.11,3.9V27.39h-7V51h7Z"/><path d="M22.88,24.31A4.35,4.35,0,1,0,18.56,20,4.33,4.33,0,0,0,22.88,24.31Z"/><rect x="19.27" y="27.39" width="7.3" height="23.57"/><path class="cls-1" d="M57.91,0H12.59A12.59,12.59,0,0,0,0,12.59V57.91A12.59,12.59,0,0,0,12.59,70.5H57.91A12.59,12.59,0,0,0,70.5,57.91V12.59A12.59,12.59,0,0,0,57.91,0Zm-35,24.31A4.35,4.35,0,1,1,27.19,20,4.34,4.34,0,0,1,22.88,24.31Zm3.68,3.08V51H19.27V27.39ZM53.9,51H46.64V38.59c0-3.39-1.29-5.29-4-5.29-2.92,0-4.45,2-4.45,5.29V51h-7V27.39h7v3.18a8.23,8.23,0,0,1,7.11-3.9c5,0,8.57,3,8.57,9.37Z"/></svg>