<svg id="Layer_1" data-name="Layer 1" xmlns="http://www.w3.org/2000/svg" viewBox="0 0 70.5 70.5"><defs><style>.cls-1{fill:#ffd200;}</style></defs><title>icon</title><path d="M16.47,47.05a21.77,21.77,0,0,0,11.81,3.46c14.31,0,22.39-12.08,21.91-22.92a15.67,15.67,0,0,0,3.84-4,15.32,15.32,0,0,1-4.42,1.21A7.68,7.68,0,0,0,53,20.55a15.65,15.65,0,0,1-4.89,1.87,7.71,7.71,0,0,0-13.13,7,21.88,21.88,0,0,1-15.89-8,7.73,7.73,0,0,0,2.39,10.29,7.66,7.66,0,0,1-3.49-1,7.71,7.71,0,0,0,6.18,7.66,7.81,7.81,0,0,1-3.48.13,7.71,7.71,0,0,0,7.2,5.35A15.5,15.5,0,0,1,16.47,47.05Z"/><path class="cls-1" d="M57.91,0H12.59A12.59,12.59,0,0,0,0,12.59V57.91A12.59,12.59,0,0,0,12.59,70.5H57.91A12.59,12.59,0,0,0,70.5,57.91V12.59A12.59,12.59,0,0,0,57.91,0ZM50.19,27.59c.48,10.84-7.6,22.92-21.91,22.92a21.77,21.77,0,0,1-11.81-3.46,15.5,15.5,0,0,0,11.41-3.19,7.71,7.71,0,0,1-7.2-5.35,7.81,7.81,0,0,0,3.48-.13A7.71,7.71,0,0,1,18,30.72a7.66,7.66,0,0,0,3.49,1A7.73,7.73,0,0,1,19.08,21.4,21.88,21.88,0,0,0,35,29.45a7.71,7.71,0,0,1,13.13-7A15.65,15.65,0,0,0,53,20.55a7.68,7.68,0,0,1-3.38,4.26A15.32,15.32,0,0,0,54,23.6,15.67,15.67,0,0,1,50.19,27.59Z"/></svg>