<svg width="15" height="14" viewBox="0 0 15 14" fill="none" xmlns="http://www.w3.org/2000/svg">
<path d="M5.7577 1.09115C6.52272 -0.266139 8.47728 -0.266141 9.2423 1.09115L10.0659 2.55233C10.3513 3.05868 10.8428 3.41582 11.4126 3.53079L13.0568 3.86253C14.584 4.17069 15.188 6.02958 14.1336 7.17658L12.9984 8.41138C12.605 8.83929 12.4173 9.41716 12.484 9.99456L12.6766 11.6608C12.8555 13.2085 11.2742 14.3574 9.85748 13.709L8.33233 13.0109C7.80381 12.769 7.1962 12.769 6.66767 13.0109L5.14252 13.709C3.72581 14.3574 2.14454 13.2085 2.32342 11.6608L2.51599 9.99456C2.58272 9.41716 2.39496 8.83929 2.00158 8.41138L0.866421 7.17658C-0.188032 6.02958 0.415956 4.17069 1.94322 3.86253L3.58739 3.53079C4.15715 3.41583 4.64872 3.05868 4.93412 2.55233L5.7577 1.09115Z" fill="url(#paint0_linear_254_3777)"/>
<defs>
<linearGradient id="paint0_linear_254_3777" x1="7.5" y1="-1.7625" x2="7.5" y2="17.2375" gradientUnits="userSpaceOnUse">
<stop stop-color="#FAC84E"/>
<stop offset="1" stop-color="#F07C33"/>
</linearGradient>
</defs>
</svg>
